<svg width="190" height="23" viewBox="0 0 190 23" fill="none" xmlns="http://www.w3.org/2000/svg">
<path d="M20.6283 5.44252C21.8672 7.53726 22.3824 9.98148 22.0944 12.3981L20.2408 12.1772C20.4803 10.1675 20.0519 8.13482 19.0215 6.3928C17.9912 4.65077 16.4163 3.29618 14.5398 2.53801C12.6632 1.77985 10.5894 1.66024 8.63812 2.19765C6.68686 2.73505 4.96666 3.8996 3.74291 5.51163C2.51916 7.12366 1.85987 9.09359 1.86675 11.1175C1.87363 13.1414 2.5463 15.1068 3.78098 16.7104C5.01566 18.3141 6.74374 19.467 8.6986 19.9911C10.6535 20.5152 12.7265 20.3815 14.5978 19.6106L15.3088 21.3366C13.0586 22.2636 10.5659 22.4243 8.21519 21.7941C5.86451 21.1638 3.78655 19.7776 2.30188 17.8492C0.817205 15.9208 0.00833659 13.5575 6.40894e-05 11.1238C-0.00820841 8.69015 0.784575 6.32136 2.2561 4.38294C3.72763 2.44452 5.79612 1.04418 8.14246 0.397961C10.4888 -0.248253 12.9826 -0.10443 15.2391 0.807243C17.4955 1.71892 19.3893 3.34778 20.6283 5.44252Z" fill="white"/>
<path d="M35.4651 17.098C36.2788 17.4091 37.1643 17.5647 38.1215 17.5647C39.1027 17.5647 40.0002 17.3971 40.8139 17.0621C41.6395 16.7271 42.3396 16.2364 42.9139 15.5903L41.7472 14.4595C41.2686 14.974 40.7301 15.3569 40.1318 15.6082C39.5335 15.8476 38.8933 15.9672 38.2113 15.9672C37.5053 15.9672 36.8472 15.8476 36.2369 15.6082C35.6386 15.3689 35.1181 15.0339 34.6753 14.6031C34.2326 14.1723 33.8856 13.6638 33.6343 13.0774C33.395 12.4791 33.2753 11.833 33.2753 11.1389C33.2753 10.4449 33.395 9.80473 33.6343 9.21839C33.8856 8.62009 34.2326 8.10556 34.6753 7.67478C35.1181 7.244 35.6386 6.90896 36.2369 6.66964C36.8472 6.43032 37.5053 6.31066 38.2113 6.31066C38.8933 6.31066 39.5335 6.4363 40.1318 6.68758C40.7301 6.9269 41.2686 7.29785 41.7472 7.80042L42.9139 6.66964C42.3396 6.02347 41.6395 5.53885 40.8139 5.21577C40.0002 4.88072 39.1087 4.7132 38.1395 4.7132C37.1822 4.7132 36.2967 4.87474 35.483 5.19782C34.6813 5.50893 33.9813 5.95766 33.383 6.54399C32.7847 7.11836 32.318 7.79444 31.983 8.57223C31.6479 9.35002 31.4804 10.2056 31.4804 11.1389C31.4804 12.0723 31.6479 12.9279 31.983 13.7056C32.318 14.4834 32.7787 15.1655 33.3651 15.7518C33.9634 16.3262 34.6634 16.7749 35.4651 17.098Z" fill="white"/>
<path d="M46.3719 4.85679V17.4211H48.1668V4.85679H46.3719Z" fill="white"/>
<path fill-rule="evenodd" clip-rule="evenodd" d="M52.8258 4.85679V17.4211H54.6207V13.5979H57.7259C58.002 13.5979 58.268 13.587 58.5238 13.5652L61.226 17.4211H63.1824L60.2018 13.2151C60.3191 13.1727 60.4331 13.1268 60.5439 13.0774C61.3217 12.7304 61.92 12.2338 62.3388 11.5877C62.7576 10.9295 62.967 10.1458 62.967 9.23634C62.967 8.32693 62.7576 7.54315 62.3388 6.88502C61.92 6.22689 61.3217 5.72432 60.5439 5.37731C59.7661 5.03029 58.8268 4.85679 57.7259 4.85679H52.8258ZM54.6207 12.0723H57.6721C58.8208 12.0723 59.6883 11.827 60.2747 11.3364C60.873 10.8338 61.1721 10.1338 61.1721 9.23634C61.1721 8.33889 60.873 7.64486 60.2747 7.15426C59.6883 6.66365 58.8208 6.41835 57.6721 6.41835H54.6207V12.0723Z" fill="white"/>
<path d="M69.7259 17.098C70.5396 17.4091 71.4251 17.5647 72.3824 17.5647C73.3636 17.5647 74.261 17.3971 75.0747 17.0621C75.9004 16.7271 76.6004 16.2364 77.1748 15.5903L76.0081 14.4595C75.5294 14.974 74.991 15.3569 74.3927 15.6082C73.7944 15.8476 73.1542 15.9672 72.4721 15.9672C71.7661 15.9672 71.108 15.8476 70.4977 15.6082C69.8994 15.3689 69.3789 15.0339 68.9362 14.6031C68.4934 14.1723 68.1464 13.6638 67.8951 13.0774C67.6558 12.4791 67.5361 11.833 67.5361 11.1389C67.5361 10.4449 67.6558 9.80473 67.8951 9.21839C68.1464 8.62009 68.4934 8.10556 68.9362 7.67478C69.3789 7.244 69.8994 6.90896 70.4977 6.66964C71.108 6.43032 71.7661 6.31066 72.4721 6.31066C73.1542 6.31066 73.7944 6.4363 74.3927 6.68758C74.991 6.9269 75.5294 7.29785 76.0081 7.80042L77.1748 6.66964C76.6004 6.02347 75.9004 5.53885 75.0747 5.21577C74.261 4.88072 73.3696 4.7132 72.4003 4.7132C71.443 4.7132 70.5576 4.87474 69.7439 5.19782C68.9422 5.50893 68.2421 5.95766 67.6438 6.54399C67.0455 7.11836 66.5789 7.79444 66.2438 8.57223C65.9088 9.35002 65.7412 10.2056 65.7412 11.1389C65.7412 12.0723 65.9088 12.9279 66.2438 13.7056C66.5789 14.4834 67.0396 15.1655 67.6259 15.7518C68.2242 16.3262 68.9242 16.7749 69.7259 17.098Z" fill="white"/>
<path d="M80.6327 4.85679V17.4211H89.2303V15.8595H82.4276V4.85679H80.6327Z" fill="white"/>
<path d="M93.9823 11.803V15.8595H101.305V17.4211H92.1874V4.85679H101.054V6.41835H93.9823V10.2774H100.282V11.803H93.9823Z" fill="white"/>
<path fill-rule="evenodd" clip-rule="evenodd" d="M110.572 4.85679V17.4211H113.48V13.921H116.011C116.057 13.921 116.102 13.9207 116.148 13.9201L118.56 17.4211H121.701L118.894 13.3934C118.902 13.3898 118.91 13.3862 118.919 13.3826C119.732 13.0236 120.361 12.509 120.803 11.8389C121.246 11.1569 121.467 10.3492 121.467 9.41583C121.467 8.47052 121.246 7.65683 120.803 6.97477C120.361 6.29271 119.732 5.77219 118.919 5.41321C118.105 5.04226 117.136 4.85679 116.011 4.85679H110.572ZM113.48 11.6056H115.849C116.747 11.6056 117.417 11.4142 117.86 11.0312C118.302 10.6364 118.524 10.0979 118.524 9.41583C118.524 8.7218 118.302 8.18334 117.86 7.80042C117.417 7.41751 116.747 7.22606 115.849 7.22606H113.48V11.6056Z" fill="white"/>
<path d="M127.558 12.18V15.0877H134.397V17.4211H124.669V4.85679H134.164V7.19016H127.558V9.9184H133.392V12.18H127.558Z" fill="white"/>
<path d="M135.781 4.85679L141.202 17.4211H144.074L149.512 4.85679H146.623L142.744 13.8306L138.923 4.85679H135.781Z" fill="white"/>
<path d="M151.459 4.85679V17.4211H154.367V4.85679H151.459Z" fill="white"/>
<path d="M161.136 12.18V15.0877H167.974V17.4211H158.246V4.85679H167.741V7.19016H161.136V9.9184H166.969V12.18H161.136Z" fill="white"/>
<path d="M169.915 4.85679L174.025 17.4211H177.149L179.997 8.90796L182.767 17.4211H185.89L190 4.85679H187.218L184.29 13.754L181.42 4.85679H178.728L175.765 13.6884L172.93 4.85679H169.915Z" fill="white"/>
</svg>
