<svg width="90" height="80" viewBox="0 0 90 80" fill="none" xmlns="http://www.w3.org/2000/svg">
<g clip-path="url(#clip0_324_3159)">
<path d="M46.0816 0.174395L43.1812 0.922339L7.44816 10.1372L4.5478 10.8851C3.13999 11.2499 1.93436 12.1581 1.19539 13.4107C0.45642 14.6632 0.244471 16.1578 0.606039 17.5664L13.1827 66.3357C13.5474 67.7435 14.4557 68.9491 15.7082 69.6881C16.9608 70.4271 18.4553 70.639 19.8639 70.2774L19.8714 70.2755L61.3902 59.5686L61.3977 59.5667C62.8055 59.202 64.0111 58.2937 64.7501 57.0412C65.4891 55.7886 65.701 54.2941 65.3395 52.8855L52.7628 4.11618C52.3981 2.70837 51.4898 1.50273 50.2373 0.763757C48.9847 0.0247838 47.4902 -0.18717 46.0816 0.174395Z" fill="#F2F2F2"/>
<path d="M46.4759 1.70336L43.0406 2.58925L8.37727 11.5282L4.94204 12.4141C3.93951 12.6738 3.08094 13.3206 2.5547 14.2126C2.02846 15.1046 1.87753 16.1689 2.13501 17.172L14.7116 65.9413C14.9714 66.9438 15.6182 67.8023 16.5101 68.3286C17.4021 68.8548 18.4664 69.0058 19.4695 68.7483L19.477 68.7463L60.9958 58.0395L61.0033 58.0375C62.0059 57.7778 62.8644 57.131 63.3906 56.239C63.9169 55.3471 64.0678 54.2828 63.8103 53.2797L51.2337 4.51039C50.974 3.50787 50.3272 2.64931 49.4352 2.12307C48.5433 1.59683 47.479 1.44589 46.4759 1.70336Z" fill="white"/>
<path d="M43.8822 17.496L22.8788 22.9123C22.6443 22.9728 22.3953 22.9377 22.1866 22.8146C21.9779 22.6915 21.8267 22.4905 21.7662 22.2559C21.7057 22.0213 21.7409 21.7723 21.864 21.5637C21.9871 21.355 22.1881 21.2038 22.4227 21.1433L43.426 15.727C43.6605 15.6667 43.9093 15.702 44.1178 15.8252C44.3263 15.9483 44.4774 16.1491 44.5378 16.3836C44.5983 16.618 44.5632 16.8669 44.4403 17.0755C44.3173 17.2841 44.1166 17.4353 43.8822 17.496Z" fill="#F2F2F2"/>
<path d="M48.3003 19.5406L23.6484 25.8979C23.4138 25.9584 23.1648 25.9232 22.9561 25.8001C22.7475 25.677 22.5963 25.4761 22.5358 25.2415C22.4753 25.0069 22.5105 24.7579 22.6336 24.5492C22.7567 24.3406 22.9576 24.1894 23.1922 24.1289L47.8441 17.7716C48.0787 17.7111 48.3277 17.7463 48.5364 17.8694C48.7451 17.9925 48.8963 18.1934 48.9568 18.428C49.0173 18.6626 48.9821 18.9116 48.859 19.1203C48.7359 19.3289 48.5349 19.4801 48.3003 19.5406Z" fill="#F2F2F2"/>
<path d="M47.3319 30.8746L26.3286 36.291C26.2124 36.3209 26.0915 36.3277 25.9727 36.3109C25.8539 36.2941 25.7396 36.2541 25.6363 36.1932C25.533 36.1322 25.4427 36.0515 25.3706 35.9557C25.2984 35.8598 25.2459 35.7507 25.2159 35.6346C25.186 35.5184 25.1792 35.3975 25.196 35.2787C25.2128 35.1599 25.2528 35.0456 25.3137 34.9423C25.3747 34.839 25.4554 34.7487 25.5512 34.6766C25.6471 34.6044 25.7562 34.5519 25.8724 34.5219L46.8757 29.1056C46.9919 29.0756 47.1128 29.0689 47.2316 29.0856C47.3503 29.1024 47.4647 29.1424 47.568 29.2034C47.6713 29.2643 47.7616 29.345 47.8337 29.4409C47.9058 29.5367 47.9584 29.6459 47.9883 29.762C48.0183 29.8782 48.0251 29.9991 48.0083 30.1179C47.9915 30.2366 47.9515 30.3509 47.8906 30.4543C47.8296 30.5576 47.7489 30.6479 47.653 30.72C47.5572 30.7921 47.4481 30.8447 47.3319 30.8746Z" fill="#F2F2F2"/>
<path d="M51.7505 32.9186L27.0986 39.2758C26.9824 39.3058 26.8615 39.3125 26.7427 39.2958C26.6239 39.279 26.5096 39.239 26.4063 39.178C26.303 39.1171 26.2127 39.0364 26.1406 38.9405C26.0685 38.8447 26.0159 38.7356 25.986 38.6194C25.956 38.5032 25.9492 38.3823 25.966 38.2635C25.9828 38.1448 26.0228 38.0305 26.0837 37.9272C26.1447 37.8238 26.2254 37.7335 26.3213 37.6614C26.4171 37.5893 26.5262 37.5367 26.6424 37.5068L51.2943 31.1495C51.5289 31.0891 51.7779 31.1242 51.9866 31.2473C52.1952 31.3704 52.3464 31.5714 52.4069 31.806C52.4674 32.0405 52.4323 32.2896 52.3092 32.4982C52.1861 32.7069 51.9851 32.8581 51.7505 32.9186Z" fill="#F2F2F2"/>
<path d="M50.782 44.2525L29.7786 49.6689C29.5441 49.7292 29.2952 49.6939 29.0867 49.5708C28.8782 49.4477 28.7271 49.2468 28.6666 49.0123C28.6062 48.7778 28.6413 48.5289 28.7643 48.3203C28.8872 48.1117 29.088 47.9605 29.3224 47.8999L50.3258 42.4835C50.5604 42.423 50.8094 42.4582 51.018 42.5813C51.2267 42.7044 51.3779 42.9054 51.4384 43.1399C51.4989 43.3745 51.4637 43.6235 51.3406 43.8322C51.2175 44.0408 51.0166 44.192 50.782 44.2525Z" fill="#F2F2F2"/>
<path d="M55.2005 46.297L30.5486 52.6542C30.4324 52.6843 30.3114 52.6912 30.1925 52.6745C30.0737 52.6578 29.9593 52.6178 29.8559 52.5569C29.7525 52.4959 29.6621 52.4152 29.5899 52.3193C29.5177 52.2234 29.4652 52.1142 29.4352 51.998C29.4052 51.8818 29.3984 51.7608 29.4153 51.642C29.4321 51.5231 29.4721 51.4088 29.5332 51.3054C29.5942 51.2021 29.675 51.1118 29.771 51.0397C29.8669 50.9676 29.9761 50.9151 30.0924 50.8852L54.7443 44.528C54.9789 44.4675 55.2279 44.5026 55.4366 44.6257C55.6453 44.7488 55.7965 44.9498 55.857 45.1844C55.9175 45.419 55.8823 45.668 55.7592 45.8766C55.6361 46.0853 55.4351 46.2365 55.2005 46.297Z" fill="#F2F2F2"/>
<path d="M19.2933 28.4661L11.8604 30.3829C11.7479 30.4118 11.6286 30.3949 11.5286 30.3359C11.4286 30.2768 11.356 30.1806 11.3269 30.0682L9.62071 23.4519C9.59183 23.3394 9.60875 23.22 9.66776 23.12C9.72677 23.02 9.82304 22.9475 9.93545 22.9184L17.3683 21.0016C17.4808 20.9727 17.6002 20.9896 17.7002 21.0486C17.8002 21.1076 17.8727 21.2039 17.9018 21.3163L19.6081 27.9326C19.6369 28.0451 19.62 28.1644 19.561 28.2645C19.502 28.3645 19.4057 28.437 19.2933 28.4661Z" fill="#E6E6E6"/>
<path d="M22.743 41.8445L15.3101 43.7613C15.1976 43.7902 15.0783 43.7733 14.9783 43.7143C14.8783 43.6553 14.8057 43.559 14.7766 43.4466L13.0704 36.8303C13.0415 36.7178 13.0585 36.5985 13.1175 36.4984C13.1765 36.3984 13.2727 36.3259 13.3852 36.2968L20.8181 34.38C20.9305 34.3511 21.0499 34.368 21.1499 34.427C21.2499 34.486 21.3224 34.5823 21.3515 34.6947L23.0578 41.311C23.0866 41.4235 23.0697 41.5429 23.0107 41.6429C22.9517 41.7429 22.8554 41.8154 22.743 41.8445Z" fill="#E6E6E6"/>
<path d="M26.1932 55.2225L18.7603 57.1393C18.6478 57.1681 18.5285 57.1512 18.4285 57.0922C18.3285 57.0332 18.2559 56.9369 18.2268 56.8245L16.5206 50.2082C16.4917 50.0957 16.5087 49.9764 16.5677 49.8764C16.6267 49.7764 16.7229 49.7038 16.8354 49.6747L24.2682 47.7579C24.3807 47.729 24.5001 47.746 24.6001 47.805C24.7001 47.864 24.7726 47.9603 24.8017 48.0727L26.508 54.689C26.5368 54.8014 26.5199 54.9208 26.4609 55.0208C26.4019 55.1208 26.3056 55.1933 26.1932 55.2225Z" fill="#E6E6E6"/>
<path d="M75.0493 12.5366H32.1567C30.7024 12.5383 29.3081 13.1167 28.2798 14.145C27.2515 15.1734 26.673 16.5676 26.6714 18.0219V68.3867C26.673 69.841 27.2515 71.2353 28.2798 72.2636C29.3081 73.2919 30.7024 73.8704 32.1567 73.872H75.0493C76.5036 73.8704 77.8978 73.2919 78.9261 72.2636C79.9545 71.2353 80.5329 69.841 80.5345 68.3867V18.0219C80.5329 16.5676 79.9545 15.1734 78.9261 14.145C77.8978 13.1167 76.5036 12.5383 75.0493 12.5366Z" fill="#E6E6E6"/>
<path d="M75.0494 14.1157H32.1567C31.1211 14.1169 30.1282 14.5288 29.3959 15.2611C28.6636 15.9934 28.2517 16.9863 28.2505 18.0219V68.3867C28.2517 69.4224 28.6636 70.4152 29.3959 71.1475C30.1282 71.8798 31.1211 72.2918 32.1567 72.2929H75.0494C76.085 72.2917 77.0778 71.8798 77.8101 71.1475C78.5424 70.4152 78.9543 69.4224 78.9555 68.3867V18.0219C78.9543 16.9863 78.5424 15.9934 77.8101 15.2611C77.0778 14.5288 76.085 14.1169 75.0494 14.1157Z" fill="white"/>
<path d="M79.5551 79.9999C85.0853 79.9999 89.5683 75.5169 89.5683 69.9868C89.5683 64.4567 85.0853 59.9736 79.5551 59.9736C74.025 59.9736 69.542 64.4567 69.542 69.9868C69.542 75.5169 74.025 79.9999 79.5551 79.9999Z" fill="#1C64F2"/>
<path d="M84.3448 68.681H80.862V65.1982C80.862 64.8518 80.7244 64.5196 80.4794 64.2746C80.2345 64.0297 79.9023 63.8921 79.5559 63.8921C79.2095 63.8921 78.8773 64.0297 78.6324 64.2746C78.3874 64.5196 78.2498 64.8518 78.2498 65.1982V68.681H74.767C74.4206 68.681 74.0884 68.8186 73.8435 69.0635C73.5985 69.3085 73.4609 69.6407 73.4609 69.987C73.4609 70.3334 73.5985 70.6656 73.8435 70.9106C74.0884 71.1555 74.4206 71.2931 74.767 71.2931H78.2498V74.7759C78.2498 75.1223 78.3874 75.4545 78.6324 75.6995C78.8773 75.9444 79.2095 76.082 79.5559 76.082C79.9023 76.082 80.2345 75.9444 80.4794 75.6995C80.7244 75.4545 80.862 75.1223 80.862 74.7759V71.2931H84.3448C84.6912 71.2931 85.0234 71.1555 85.2683 70.9106C85.5133 70.6656 85.6509 70.3334 85.6509 69.987C85.6509 69.6407 85.5133 69.3085 85.2683 69.0635C85.0234 68.8186 84.6912 68.681 84.3448 68.681Z" fill="white"/>
<path d="M68.5942 41.7912H46.9037C46.7837 41.7914 46.6648 41.7679 46.5539 41.722C46.4429 41.6762 46.3421 41.6089 46.2572 41.5241C46.1722 41.4392 46.1049 41.3385 46.0589 41.2276C46.0129 41.1167 45.9893 40.9978 45.9893 40.8778C45.9893 40.7578 46.0129 40.6389 46.0589 40.528C46.1049 40.4171 46.1722 40.3164 46.2572 40.2315C46.3421 40.1467 46.4429 40.0794 46.5539 40.0336C46.6648 39.9877 46.7837 39.9642 46.9037 39.9644H68.5942C68.8363 39.9646 69.0684 40.061 69.2395 40.2323C69.4106 40.4035 69.5067 40.6357 69.5067 40.8778C69.5067 41.1199 69.4106 41.3521 69.2395 41.5233C69.0684 41.6946 68.8363 41.791 68.5942 41.7912Z" fill="#E6E6E6"/>
<path d="M72.3622 44.8743H46.9037C46.7837 44.8744 46.6648 44.8509 46.5539 44.805C46.4429 44.7592 46.3421 44.6919 46.2572 44.6071C46.1722 44.5222 46.1049 44.4215 46.0589 44.3106C46.0129 44.1997 45.9893 44.0808 45.9893 43.9608C45.9893 43.8408 46.0129 43.7219 46.0589 43.611C46.1049 43.5001 46.1722 43.3994 46.2572 43.3145C46.3421 43.2297 46.4429 43.1624 46.5539 43.1166C46.6648 43.0708 46.7837 43.0472 46.9037 43.0474H72.3622C72.6045 43.0474 72.8368 43.1436 73.0081 43.3149C73.1794 43.4862 73.2756 43.7185 73.2756 43.9608C73.2756 44.2031 73.1794 44.4354 73.0081 44.6067C72.8368 44.778 72.6045 44.8743 72.3622 44.8743Z" fill="#E6E6E6"/>
<path d="M68.5942 55.6072H46.9037C46.7837 55.6073 46.6648 55.5838 46.5539 55.5379C46.4429 55.4921 46.3421 55.4248 46.2572 55.34C46.1722 55.2552 46.1049 55.1544 46.0589 55.0435C46.0129 54.9326 45.9893 54.8138 45.9893 54.6937C45.9893 54.5737 46.0129 54.4548 46.0589 54.3439C46.1049 54.233 46.1722 54.1323 46.2572 54.0475C46.3421 53.9626 46.4429 53.8954 46.5539 53.8495C46.6648 53.8037 46.7837 53.7801 46.9037 53.7803H68.5942C68.8365 53.7803 69.0688 53.8765 69.2401 54.0478C69.4114 54.2191 69.5077 54.4515 69.5077 54.6937C69.5077 54.936 69.4114 55.1683 69.2401 55.3396C69.0688 55.5109 68.8365 55.6072 68.5942 55.6072Z" fill="#E6E6E6"/>
<path d="M72.3622 58.6902H46.9037C46.7837 58.6903 46.6648 58.6668 46.5539 58.6209C46.4429 58.5751 46.3421 58.5078 46.2572 58.423C46.1722 58.3382 46.1049 58.2374 46.0589 58.1265C46.0129 58.0156 45.9893 57.8968 45.9893 57.7767C45.9893 57.6567 46.0129 57.5378 46.0589 57.4269C46.1049 57.316 46.1722 57.2153 46.2572 57.1305C46.3421 57.0456 46.4429 56.9784 46.5539 56.9325C46.6648 56.8867 46.7837 56.8631 46.9037 56.8633H72.3622C72.4822 56.8631 72.6011 56.8867 72.7121 56.9325C72.823 56.9784 72.9238 57.0456 73.0088 57.1305C73.0937 57.2153 73.1611 57.316 73.207 57.4269C73.253 57.5378 73.2767 57.6567 73.2767 57.7767C73.2767 57.8968 73.253 58.0156 73.207 58.1265C73.1611 58.2374 73.0937 58.3382 73.0088 58.423C72.9238 58.5078 72.823 58.5751 72.7121 58.6209C72.6011 58.6668 72.4822 58.6903 72.3622 58.6902Z" fill="#E6E6E6"/>
<path d="M42.0447 46.2737H34.3687C34.2525 46.2736 34.1412 46.2274 34.0591 46.1453C33.977 46.0632 33.9308 45.9518 33.9307 45.8357V39.0029C33.9308 38.8868 33.977 38.7755 34.0591 38.6934C34.1412 38.6113 34.2525 38.5651 34.3687 38.5649H42.0447C42.1608 38.5651 42.2722 38.6113 42.3543 38.6934C42.4364 38.7755 42.4826 38.8868 42.4827 39.0029V45.8357C42.4826 45.9518 42.4364 46.0632 42.3543 46.1453C42.2722 46.2274 42.1608 46.2736 42.0447 46.2737Z" fill="#E6E6E6"/>
<path d="M42.0447 60.0896H34.3687C34.2525 60.0895 34.1412 60.0433 34.0591 59.9612C33.977 59.8791 33.9308 59.7677 33.9307 59.6516V52.8189C33.9308 52.7027 33.977 52.5914 34.0591 52.5093C34.1412 52.4272 34.2525 52.381 34.3687 52.3809H42.0447C42.1608 52.381 42.2722 52.4272 42.3543 52.5093C42.4364 52.5914 42.4826 52.7027 42.4827 52.8189V59.6516C42.4826 59.7677 42.4364 59.8791 42.3543 59.9612C42.2722 60.0433 42.1608 60.0895 42.0447 60.0896Z" fill="#E6E6E6"/>
<path d="M68.6179 26.4114H52.6263C52.3841 26.4114 52.1517 26.3151 51.9804 26.1438C51.8091 25.9725 51.7129 25.7402 51.7129 25.4979C51.7129 25.2557 51.8091 25.0233 51.9804 24.852C52.1517 24.6807 52.3841 24.5845 52.6263 24.5845H68.6179C68.8601 24.5845 69.0925 24.6807 69.2638 24.852C69.4351 25.0233 69.5313 25.2557 69.5313 25.4979C69.5313 25.7402 69.4351 25.9725 69.2638 26.1438C69.0925 26.3151 68.8601 26.4114 68.6179 26.4114Z" fill="#CCCCCC"/>
<path d="M72.3858 29.4944H52.6263C52.5064 29.4944 52.3876 29.4707 52.2768 29.4248C52.166 29.3789 52.0653 29.3116 51.9804 29.2268C51.8956 29.142 51.8283 29.0413 51.7824 28.9305C51.7365 28.8197 51.7129 28.7009 51.7129 28.5809C51.7129 28.461 51.7365 28.3422 51.7824 28.2314C51.8283 28.1205 51.8956 28.0198 51.9804 27.935C52.0653 27.8502 52.166 27.7829 52.2768 27.737C52.3876 27.6911 52.5064 27.6675 52.6263 27.6675H72.3858C72.6281 27.6675 72.8604 27.7637 73.0317 27.935C73.203 28.1063 73.2993 28.3387 73.2993 28.5809C73.2993 28.8232 73.203 29.0555 73.0317 29.2268C72.8604 29.3981 72.6281 29.4944 72.3858 29.4944Z" fill="#CCCCCC"/>
<path d="M49.087 33.2306H34.3442C34.2281 33.2304 34.1168 33.1842 34.0347 33.1021C33.9526 33.02 33.9064 32.9087 33.9062 32.7926V21.2866C33.9064 21.1705 33.9526 21.0592 34.0347 20.9771C34.1168 20.8949 34.2281 20.8488 34.3442 20.8486H49.087C49.2032 20.8488 49.3145 20.8949 49.3966 20.9771C49.4787 21.0592 49.5249 21.1705 49.525 21.2866V32.7926C49.5249 32.9087 49.4787 33.02 49.3966 33.1021C49.3145 33.1842 49.2032 33.2304 49.087 33.2306Z" fill="#1C64F2"/>
</g>
<defs>
<clipPath id="clip0_324_3159">
<rect width="89.1371" height="80" fill="white" transform="translate(0.431641)"/>
</clipPath>
</defs>
</svg>
