<svg width="14" height="16" viewBox="0 0 14 16" fill="none" xmlns="http://www.w3.org/2000/svg">
<path d="M4.5 2.16667H2.83333C2.3913 2.16667 1.96738 2.34226 1.65482 2.65482C1.34226 2.96738 1.16666 3.39131 1.16666 3.83333V13.8333C1.16666 14.2754 1.34226 14.6993 1.65482 15.0118C1.96738 15.3244 2.3913 15.5 2.83333 15.5H11.1667C11.6087 15.5 12.0326 15.3244 12.3452 15.0118C12.6577 14.6993 12.8333 14.2754 12.8333 13.8333V3.83333C12.8333 3.39131 12.6577 2.96738 12.3452 2.65482C12.0326 2.34226 11.6087 2.16667 11.1667 2.16667H9.5M4.5 2.16667C4.5 2.60869 4.67559 3.03262 4.98815 3.34518C5.30071 3.65774 5.72464 3.83333 6.16666 3.83333H7.83333C8.27536 3.83333 8.69928 3.65774 9.01184 3.34518C9.3244 3.03262 9.5 2.60869 9.5 2.16667M4.5 2.16667C4.5 1.72464 4.67559 1.30072 4.98815 0.988155C5.30071 0.675595 5.72464 0.5 6.16666 0.5H7.83333C8.27536 0.5 8.69928 0.675595 9.01184 0.988155C9.3244 1.30072 9.5 1.72464 9.5 2.16667M7 8H9.5M7 11.3333H9.5M4.5 8H4.50833M4.5 11.3333H4.50833" stroke="white" stroke-linecap="round" stroke-linejoin="round"/>
</svg>
