<svg width="16" height="16" viewBox="0 0 16 16" fill="none" xmlns="http://www.w3.org/2000/svg">
<path d="M1.33337 3.83333V12.1667C1.33337 14.0083 4.31837 15.5 8.00004 15.5C11.6817 15.5 14.6667 14.0083 14.6667 12.1667V3.83333M1.33337 3.83333C1.33337 5.675 4.31837 7.16667 8.00004 7.16667C11.6817 7.16667 14.6667 5.675 14.6667 3.83333M1.33337 3.83333C1.33337 1.99167 4.31837 0.5 8.00004 0.5C11.6817 0.5 14.6667 1.99167 14.6667 3.83333M14.6667 8C14.6667 9.84167 11.6817 11.3333 8.00004 11.3333C4.31837 11.3333 1.33337 9.84167 1.33337 8" stroke="#9CA3AF" stroke-linecap="round" stroke-linejoin="round"/>
</svg>
