<svg width="20" height="12" viewBox="0 0 20 12" fill="none" xmlns="http://www.w3.org/2000/svg">
<path d="M13.1051 1.69513L15.8567 4.44668L16.7102 5.30023H15.5031H1.5999C1.41425 5.30023 1.2362 5.37398 1.10493 5.50526L0.753531 5.15386L1.10493 5.50526C0.973652 5.63653 0.899902 5.81458 0.899902 6.00023C0.899902 6.18588 0.973652 6.36393 1.10493 6.49521C1.2362 6.62648 1.41425 6.70023 1.5999 6.70023H15.5031H16.7102L15.8567 7.55378L13.1085 10.3019C12.9827 10.4336 12.9131 10.6093 12.9147 10.7916C12.9163 10.9751 12.9899 11.1507 13.1197 11.2805C13.2495 11.4102 13.425 11.4839 13.6086 11.4855C13.7908 11.487 13.9665 11.4175 14.0982 11.2916L18.8947 6.49513C18.8947 6.49511 18.8947 6.4951 18.8947 6.49508C19.0259 6.36381 19.0996 6.18582 19.0996 6.00023C19.0996 5.81464 19.0259 5.63665 18.8947 5.50539L13.1051 1.69513ZM13.1051 1.69513C13.1051 1.69511 13.1051 1.6951 13.1051 1.69508C12.9739 1.56381 12.9002 1.38582 12.9002 1.20023C12.9002 1.01462 12.9739 0.836602 13.1051 0.705332C13.2364 0.574169 13.4143 0.500488 13.5999 0.500488C13.7855 0.500488 13.9635 0.574189 14.0947 0.705386C14.0948 0.705404 14.0948 0.705421 14.0948 0.705439L18.8947 5.50533L13.1051 1.69513Z" stroke="#9CA3AF"/>
</svg>
