<svg width="6" height="11" viewBox="0 0 6 11" fill="none" xmlns="http://www.w3.org/2000/svg">
<path fill-rule="evenodd" clip-rule="evenodd" d="M5.70703 0.792787C5.8945 0.980314 5.99982 1.23462 5.99982 1.49979C5.99982 1.76495 5.8945 2.01926 5.70703 2.20679L2.41403 5.49979L5.70703 8.79279C5.88919 8.98139 5.98998 9.23399 5.9877 9.49619C5.98543 9.75838 5.88026 10.0092 5.69485 10.1946C5.50944 10.38 5.25863 10.4852 4.99643 10.4875C4.73423 10.4897 4.48163 10.3889 4.29303 10.2068L0.293031 6.20679C0.10556 6.01926 0.000244141 5.76495 0.000244141 5.49979C0.000244141 5.23462 0.10556 4.98031 0.293031 4.79279L4.29303 0.792787C4.48056 0.605316 4.73487 0.5 5.00003 0.5C5.26519 0.5 5.5195 0.605316 5.70703 0.792787Z" fill="#6B7280"/>
</svg>
