<svg width="369" height="363" viewBox="0 0 369 363" fill="none" xmlns="http://www.w3.org/2000/svg">
<path d="M286.729 78.2094C285.041 73.5262 283.162 68.8755 281.104 64.3546C277.005 55.3575 276.064 46.8311 270.305 39.3071" stroke="#CCDDE2" stroke-width="3" stroke-miterlimit="10"/>
<path d="M256.958 30.6838C252.003 25.6435 247.368 20.2257 238.947 16.1797C221.152 7.65737 198.397 6.79296 169.352 18.8459" stroke="#CCDDE2" stroke-width="3" stroke-miterlimit="10"/>
<path d="M47.2441 360.992C19.1002 321.209 9.99754 276.232 14.701 230.231" stroke="#CCDDE2" stroke-width="3" stroke-miterlimit="10"/>
<path d="M302.564 165.146V165.637C302.288 174.565 310.539 211.576 333.938 223.333C357.338 235.089 374.022 286.694 321.265 306.94C268.507 327.187 271.381 360.992 271.381 360.992" stroke="#CCDDE2" stroke-width="3" stroke-miterlimit="10"/>
<path d="M169.348 57.0581V13.3347C169.341 10.3308 168.144 7.45217 166.02 5.32813C163.896 3.20409 161.018 2.0075 158.014 2H13.2157C10.2119 2.0075 7.33324 3.20409 5.2092 5.32813C3.08517 7.45217 1.88857 10.3308 1.88107 13.3347V218.925C1.88645 221.927 3.08314 224.805 5.20833 226.925C7.33353 229.046 10.2135 230.237 13.2157 230.235H158.014C159.418 230.244 160.811 229.977 162.113 229.448" stroke="black" stroke-width="3" stroke-linecap="round" stroke-linejoin="round"/>
<path d="M154.138 8.92773H17.0914C11.4993 8.92773 6.96606 13.461 6.96606 19.053V213.203C6.96606 218.795 11.4993 223.329 17.0914 223.329H154.138C159.73 223.329 164.263 218.795 164.263 213.203V19.053C164.263 13.461 159.73 8.92773 154.138 8.92773Z" fill="white"/>
<path d="M151.659 25.5176H21.2916C18.4945 25.5176 16.2269 27.7851 16.2269 30.5823V60.597C16.2269 63.3941 18.4945 65.6617 21.2916 65.6617H151.659C154.456 65.6617 156.723 63.3941 156.723 60.597V30.5823C156.723 27.7851 154.456 25.5176 151.659 25.5176Z" fill="#D1D5DB"/>
<path d="M85.6147 42.4243C87.9076 42.4243 89.7663 40.5655 89.7663 38.2727C89.7663 35.9798 87.9076 34.1211 85.6147 34.1211C83.3219 34.1211 81.4632 35.9798 81.4632 38.2727C81.4632 40.5655 83.3219 42.4243 85.6147 42.4243Z" fill="#D7E8F0"/>
<path d="M74.0122 57.0581C74.0122 53.9809 75.2346 51.0298 77.4105 48.8539C79.5864 46.678 82.5376 45.4556 85.6147 45.4556C88.6919 45.4556 91.6431 46.678 93.8189 48.8539C95.9948 51.0298 97.2173 53.9809 97.2173 57.0581H74.0122Z" fill="#D7E8F0"/>
<path d="M86.4589 108.675C82.0328 108.672 77.7056 109.983 74.0245 112.44C70.3434 114.898 67.4739 118.392 65.779 122.48C64.0841 126.569 63.64 131.069 64.5029 135.41C65.3658 139.751 67.4969 143.738 70.6265 146.868C73.7562 149.998 77.7438 152.129 82.0849 152.992C86.426 153.855 90.9255 153.41 95.0141 151.716C99.1028 150.021 102.597 147.151 105.054 143.47C107.512 139.789 108.822 135.462 108.82 131.036C108.817 125.106 106.46 119.421 102.267 115.228C98.0741 111.035 92.3883 108.678 86.4589 108.675ZM86.4589 148.003C85.593 148.003 84.7625 147.659 84.1503 147.047C83.538 146.435 83.194 145.604 83.194 144.738C83.194 143.872 83.538 143.042 84.1503 142.43C84.7625 141.817 85.593 141.474 86.4589 141.474C87.3247 141.474 88.1552 141.817 88.7675 142.43C89.3797 143.042 89.7237 143.872 89.7237 144.738C89.7237 145.604 89.3797 146.435 88.7675 147.047C88.1552 147.659 87.3247 148.003 86.4589 148.003ZM90.6023 122.842C89.9002 127.688 89.3077 132.797 87.8833 137.509C87.5343 138.629 85.4078 138.629 85.0425 137.509C84.0217 133.962 83.238 130.352 82.6969 126.702C82.2586 124.047 80.7043 119.754 82.1936 117.165C83.4882 114.864 87.169 114.58 89.2956 115.785C91.9375 117.303 90.9067 120.448 90.6023 122.858V122.842Z" fill="#D7E8F0"/>
<path d="M30.2766 83.583H139.52" stroke="#E5E7EB" stroke-width="3" stroke-miterlimit="10"/>
<path d="M30.2766 94.3335H139.52" stroke="#E5E7EB" stroke-width="3" stroke-miterlimit="10"/>
<path d="M30.2766 163.579H139.52" stroke="#E5E7EB" stroke-width="3" stroke-miterlimit="10"/>
<path d="M55.6528 173.749H114.144" stroke="white" stroke-width="3" stroke-miterlimit="10"/>
<path d="M41.8832 240.348C41.8832 240.348 61.3221 163.104 121.867 144.237L146.476 138.365C146.476 138.365 150.368 120.983 148.935 119.157C147.503 117.331 144.561 113.589 139.171 114.401C133.782 115.213 119.85 115.472 116.283 98.4399C112.716 81.4074 125.897 40.9224 160.152 34.8675C194.408 28.8126 195.208 53.9656 195.208 53.9656L170.046 112.27L173.95 159.305L174.442 229.371L41.8832 240.348Z" fill="white"/>
<path d="M251.106 180.676C250.7 180.794 245.522 182.299 243.484 185.887C243.096 185.066 242.483 184.372 241.716 183.886C240.948 183.4 240.058 183.143 239.15 183.144H178.337C177.255 183.142 176.205 183.507 175.358 184.18C174.511 184.854 173.917 185.794 173.675 186.849L161.699 238.198C160.887 238.039 160.075 237.942 159.231 237.861L130.97 230.808C129.757 230.503 128.475 230.662 127.373 231.253C126.272 231.843 125.43 232.823 125.012 234.001C124.824 234.53 124.73 235.088 124.736 235.649C124.736 236.924 125.219 238.151 126.088 239.083C126.958 240.016 128.148 240.584 129.419 240.673L142.783 241.534C129.91 247.592 114.25 259.134 101.178 269.738C88.4596 249.824 100.395 229.915 109.372 219.193C108.215 207.375 102.355 179.938 73.1154 180.684C83.1879 167.767 95.7482 156.696 111.312 149.286C164.621 208.374 225.608 160.064 226.902 159.025C236.023 164.975 244.184 172.278 251.106 180.684" fill="#2E2E2E"/>
<path d="M245.566 350.181V360.391H69.5157V345.928C76.3742 346.334 83.5897 344.71 90.1519 341.752C98.4591 337.97 105.634 332.093 111.77 325.389C118.081 318.45 121.546 308.827 125.568 300.459C131.607 287.858 139.606 278.882 152.3 275.079L151.488 278.569C151.325 279.272 151.323 280.002 151.481 280.706C151.639 281.409 151.954 282.068 152.402 282.633C152.85 283.198 153.42 283.655 154.069 283.97C154.718 284.284 155.43 284.448 156.151 284.45H217.268C216.051 295.001 210.917 352.628 245.566 350.193" fill="#2E2E2E"/>
<path d="M217.297 81.6431C217.247 87.1023 216.536 92.5354 215.178 97.8233C214.559 100.33 213.229 102.605 211.349 104.375C209.469 106.145 207.118 107.335 204.578 107.802C204.477 104.118 202.91 100.883 200.52 98.8744C200.738 95.7547 200.707 92.6226 200.426 89.508C200.268 87.4504 200.021 85.5309 199.761 83.8061C199.606 82.8244 199.382 81.8548 199.091 80.9045C198.275 80.028 197.314 79.2989 196.25 78.7496C192.489 76.6312 184.745 74.3788 170.399 77.6904C168.057 78.2265 165.853 79.2482 163.931 80.6894C163.888 80.7158 163.85 80.7487 163.817 80.7868C162.522 81.9799 160.875 83.4896 159.17 84.2728C157.405 85.0845 155.563 85.1169 154.016 83.1974C153.976 83.1568 153.956 83.1203 153.919 83.0797C153.107 82.0205 152.332 80.6448 150.9 80.3729C147.88 79.8047 146.411 82.8078 146.03 85.332C145.697 87.6655 146.383 89.723 147.385 91.6832C148.225 93.2767 149.322 94.7206 150.632 95.9565C150.968 96.2817 151.276 96.6346 151.553 97.0116C151.427 97.0339 151.303 97.0678 151.184 97.1131C150.906 97.2062 150.635 97.3174 150.372 97.4459C146.72 99.0895 144.118 103.209 144.062 108.03C144.062 108.18 137.938 108.091 137.163 108.03C134.176 107.754 131.233 106.893 129.131 104.641C123.166 98.2494 123.194 88.7653 125.645 81.3468C127.967 74.3058 130.921 67.4311 134.793 61.0962C143.181 47.3875 156.196 37.2743 172.672 36.3653C176.623 36.1666 180.584 36.3979 184.486 37.0552C186.332 37.3461 188.157 37.7527 189.952 38.2727C206.749 45.6019 217.41 62.2163 217.313 81.6431" fill="#2E2E2E"/>
<path d="M207.569 237.926C205.584 243.019 200.861 245.933 197.017 244.419C193.174 242.905 191.665 237.581 193.645 232.488C195.626 227.395 200.353 224.477 204.197 225.994C208.04 227.512 209.553 232.837 207.569 237.93" fill="#D1D5DB"/>
<path d="M217.779 283.41C217.779 283.41 207.001 358.548 250.115 350.221C292.995 341.93 309.224 167.486 185.107 142.398" stroke="black" stroke-width="3" stroke-miterlimit="10"/>
<path d="M116.835 211.072C116.835 211.072 82.0475 240.409 100.793 269.75" stroke="black" stroke-width="3" stroke-miterlimit="10"/>
<path d="M218.563 262.539C217.966 262.575 217.114 262.177 216.534 262.019C215.798 261.824 215.068 261.616 214.346 261.394C210.108 260.075 206.12 258.056 202.549 255.421C201.737 254.84 200.292 254.467 199.302 254.848C198.751 255.05 198.264 255.397 197.893 255.852C197.522 256.307 197.28 256.853 197.192 257.433C196.888 259.527 198.365 261.577 199.976 262.92C201.887 264.519 203.872 265.992 206.189 266.95C208.426 267.848 210.733 268.558 213.088 269.072C214.155 269.32 215.239 269.478 216.298 269.75" stroke="black" stroke-width="3" stroke-miterlimit="10"/>
<path d="M231.914 242.211C232.353 244.525 232.673 246.927 232.454 249.277C232.271 251.265 231.557 253.587 229.345 254.07C228.925 254.181 228.489 254.221 228.055 254.187C219.727 253.696 212.865 250.819 205.028 245.154C197.192 239.488 194.432 252.536 201.591 254.849" stroke="black" stroke-width="3" stroke-miterlimit="10"/>
<path d="M201.891 264.495C201.699 264.337 201.516 264.168 201.344 263.988C197.444 259.91 196.737 268.103 200.832 270.514L201.36 270.826C201.636 270.944 201.932 271.082 202.224 271.232C202.362 271.269 202.516 271.329 202.658 271.37C206.36 272.993 210.3 274.032 214.18 275.091C210.341 273.837 206.514 272.604 202.658 271.37C202.326 271.232 202.009 271.094 201.676 270.936C201.574 270.893 201.468 270.861 201.36 270.838C201.291 270.807 201.215 270.794 201.139 270.801C201.064 270.808 200.992 270.835 200.93 270.879C200.837 270.955 200.769 271.057 200.735 271.171C200.106 272.681 200.617 274.584 201.421 275.936C202.265 277.364 203.714 278.464 205.142 279.247C208.985 281.402 213.453 282.676 217.767 283.439C218.568 283.605 219.387 283.658 220.202 283.597" stroke="black" stroke-width="3" stroke-miterlimit="10"/>
<path d="M255.002 292.894C255.002 292.894 241.776 270.355 240.303 250.758C239.402 238.628 235.839 236.059 233.29 235.884" stroke="black" stroke-width="3" stroke-miterlimit="10"/>
<path d="M229.345 254.066L231.918 242.211L233.29 235.881L243.46 188.943C243.611 188.244 243.603 187.52 243.438 186.824C243.273 186.129 242.954 185.479 242.505 184.923C242.056 184.366 241.488 183.917 240.843 183.609C240.198 183.3 239.492 183.14 238.777 183.14H177.96C176.878 183.139 175.828 183.504 174.981 184.177C174.134 184.85 173.54 185.791 173.297 186.845L161.321 238.198L152.58 275.668L151.768 279.178C151.607 279.88 151.605 280.61 151.765 281.313C151.924 282.016 152.239 282.675 152.687 283.239C153.136 283.804 153.705 284.26 154.354 284.574C155.003 284.888 155.714 285.052 156.435 285.054H217.548" stroke="black" stroke-width="3" stroke-miterlimit="10"/>
<path d="M153.943 81.8456C153.943 81.8456 157.161 68.1978 175.334 66.3878C193.507 64.5778 198.06 78.1567 198.06 78.1567L197.488 79.5243C197.488 79.5243 173.597 69.9387 160.404 83.6191C160.404 83.6191 155.652 85.774 153.943 81.8537" fill="#D1D5DB"/>
<path d="M158.846 237.861L130.58 230.8C129.906 230.633 129.204 230.608 128.52 230.727C127.836 230.845 127.184 231.105 126.605 231.49C126.026 231.874 125.534 232.374 125.16 232.959C124.785 233.544 124.536 234.2 124.429 234.887C124.321 235.573 124.358 236.274 124.536 236.945C124.714 237.617 125.03 238.243 125.463 238.786C125.897 239.329 126.439 239.775 127.054 240.098C127.669 240.42 128.345 240.61 129.038 240.657L142.402 241.538" stroke="black" stroke-width="3" stroke-miterlimit="10"/>
<path d="M226.537 159.005C226.537 159.005 164.799 209.019 110.93 149.286" stroke="black" stroke-width="3" stroke-miterlimit="10"/>
<path d="M108.994 219.185C107.838 207.367 101.982 179.909 72.7177 180.676" stroke="black" stroke-width="3" stroke-miterlimit="10"/>
<path d="M250.736 180.668C250.736 180.668 245.221 182.186 243.107 185.895" stroke="black" stroke-width="3" stroke-miterlimit="10"/>
<path d="M26.685 361H288.811" stroke="black" stroke-width="3" stroke-miterlimit="10"/>
<path d="M200.52 98.8906C202.991 100.968 204.578 104.361 204.578 108.2C204.578 114.572 200.15 119.726 194.68 119.726C194.061 119.722 193.444 119.65 192.842 119.511C199.213 114.641 200.504 98.8906 200.504 98.8906" fill="#D1D5DB"/>
<path d="M164.479 124.607C167.55 126.136 170.911 126.994 174.339 127.127C177.767 127.259 181.184 126.662 184.364 125.374C202.293 117.887 201.607 95.8181 199.745 83.822C199.596 82.8488 199.385 81.8863 199.112 80.9406V80.9203C197.054 74.0619 191.685 68.4737 184.611 66.8869C170.911 63.7905 158.383 71.558 153.184 82.016" stroke="black" stroke-width="3" stroke-miterlimit="10"/>
<path d="M199.282 81.1559C199.282 81.1559 199.225 81.0748 199.107 80.9408V80.9205C197.89 79.5489 190.841 73.0029 170.436 77.7064C168.095 78.2417 165.892 79.2635 163.971 80.7055C163.926 80.7315 163.885 80.7644 163.849 80.8029" stroke="black" stroke-width="3" stroke-miterlimit="10"/>
<path d="M144.893 114.401H134.801C127.516 114.401 121.741 107.73 119.229 101.468C115.698 92.6613 117.959 83.648 121.137 75.0892C123.799 67.9264 127.183 60.9665 131.635 54.7371C141.602 40.797 156.65 32.8997 173.946 34.3607C175.48 34.4905 177.008 34.6799 178.528 34.9288C201.753 38.6949 217.414 58.1135 217.297 81.631C217.248 87.0943 216.537 92.5315 215.178 97.8234C214.554 100.329 213.222 102.601 211.342 104.371C209.462 106.14 207.112 107.331 204.574 107.803" stroke="black" stroke-width="3" stroke-miterlimit="10"/>
<path d="M151.561 97.0112C151.283 96.6338 150.975 96.2796 150.64 95.952C149.329 94.7184 148.232 93.2757 147.393 91.6827C146.391 89.7226 145.705 87.6651 146.038 85.3316C146.411 82.8236 147.88 79.8043 150.908 80.3724C152.34 80.6484 153.103 82.0201 153.927 83.0793C157.06 87.1375 161.374 83.059 164.02 80.6078" stroke="black" stroke-width="3" stroke-miterlimit="10"/>
<path d="M200.52 98.8906C202.991 100.968 204.578 104.361 204.578 108.2C204.578 114.572 200.15 119.726 194.68 119.726C194.061 119.722 193.444 119.65 192.842 119.511" stroke="black" stroke-width="3" stroke-miterlimit="10"/>
<path d="M179.34 106.711C181.556 108.2 186.908 109.422 185.833 105.006C184.542 99.7752 182.806 88.5988 193.442 87.7466C193.442 87.7466 198.125 87.9454 200.439 89.5363" stroke="black" stroke-width="3" stroke-miterlimit="10"/>
<path d="M183.345 115.456C183.345 115.456 177.988 118.297 175.334 112.636" stroke="black" stroke-width="3" stroke-miterlimit="10"/>
<path d="M172.481 95.388C172.274 97.1858 172.976 98.7401 174.052 98.8659C175.127 98.9917 176.166 97.6484 176.377 95.8385C176.588 94.0285 175.878 92.4904 174.807 92.3646C173.735 92.2388 172.688 93.5821 172.481 95.388Z" fill="black"/>
<path d="M189.924 96.4476C189.717 98.2413 190.419 99.7997 191.494 99.9255C192.57 100.051 193.609 98.708 193.816 96.898C194.023 95.0881 193.32 93.5459 192.249 93.4242C191.178 93.3024 190.131 94.6417 189.924 96.4476Z" fill="black"/>
<path d="M179.34 88.8952C179.34 88.8952 176.061 83.8386 168.63 88.6355" stroke="black" stroke-width="3" stroke-miterlimit="10"/>
<path d="M185.102 125.042V153.092" stroke="black" stroke-width="3" stroke-miterlimit="10"/>
<path d="M74.207 292.895C74.207 292.895 85.7689 281.937 100.784 269.763C113.856 259.158 129.533 247.596 142.41 241.542C144.057 240.775 145.656 240.089 147.211 239.512C150.919 238.099 154.9 237.544 158.854 237.889C159.681 237.957 160.505 238.068 161.321 238.222" stroke="black" stroke-width="3" stroke-miterlimit="10"/>
<path d="M152.58 275.667C139.882 279.47 131.883 288.447 125.848 301.048C121.835 309.416 118.361 319.038 112.05 325.977C105.918 332.677 98.7432 338.558 90.4359 342.34C75.3636 349.199 56.8053 348.671 47.0128 333.757C40.3897 323.644 37.7843 311.079 36.4614 299.262C34.1887 278.723 41.3637 220.828 72.7177 180.672C82.7902 167.755 95.3545 156.684 110.914 149.273C121.835 144.087 134.18 140.694 148.173 139.732L152.093 119.51" stroke="black" stroke-width="3" stroke-miterlimit="10"/>
<path d="M245.846 350.862V361" stroke="black" stroke-width="3" stroke-miterlimit="10"/>
<path d="M69.7957 347.243V361" stroke="black" stroke-width="3" stroke-miterlimit="10"/>
<path d="M163.829 108.2C163.868 111.243 162.788 114.193 160.794 116.491C159.676 117.008 158.458 117.275 157.226 117.274C151.76 117.274 147.328 112.12 147.328 105.749C147.289 102.707 148.371 99.7572 150.368 97.4621C151.485 96.9423 152.703 96.6736 153.935 96.6748C159.402 96.6748 163.829 101.833 163.829 108.2Z" fill="#D1D5DB"/>
<path d="M153.943 119.726C159.403 119.726 163.829 114.566 163.829 108.2C163.829 101.835 159.403 96.6748 153.943 96.6748C148.484 96.6748 144.057 101.835 144.057 108.2C144.057 114.566 148.484 119.726 153.943 119.726Z" stroke="black" stroke-width="3" stroke-miterlimit="10"/>
<path d="M271.478 7.47881C265.388 5.6632 258.896 5.69442 252.823 7.56849C246.75 9.44256 241.369 13.0753 237.361 18.0074C233.353 22.9395 230.898 28.9493 230.305 35.277C229.713 41.6047 231.01 47.9659 234.033 53.5564C237.055 59.1468 241.668 63.7153 247.287 66.6842C252.907 69.6531 259.28 70.889 265.602 70.2357C271.923 69.5823 277.909 67.0691 282.803 63.0137C287.696 58.9583 291.277 53.543 293.092 47.4525C295.527 39.2854 294.617 30.4857 290.564 22.9892C286.511 15.4927 279.645 9.91345 271.478 7.47881ZM255.334 61.632C254.743 61.4556 254.193 61.1645 253.714 60.7753C253.236 60.3862 252.839 59.9066 252.545 59.3639C252.252 58.8213 252.069 58.2262 252.006 57.6127C251.942 56.9991 252.001 56.3791 252.177 55.7881C252.354 55.1971 252.645 54.6466 253.034 54.168C253.423 53.6895 253.902 53.2923 254.445 52.9991C255.541 52.407 256.827 52.2745 258.021 52.6308C259.215 52.987 260.218 53.8029 260.81 54.8988C261.402 55.9948 261.535 57.281 261.178 58.4746C260.822 59.6683 260.006 60.6715 258.91 61.2636C257.814 61.8557 256.528 61.9882 255.334 61.632ZM271.567 28.7846C271.5 28.9469 271.435 29.1052 271.373 29.2594C268.739 35.7372 265.464 41.9353 261.596 47.7609C260.659 49.1813 257.721 48.3047 257.713 46.6002C257.767 41.3034 258.174 36.016 258.93 30.7731C259.401 26.9421 259.036 20.384 262.132 17.4377C264.879 14.7999 270.062 15.9321 272.505 18.4645C275.204 21.2768 272.866 25.6962 271.555 28.7846H271.567Z" fill="#D7E8F0"/>
<path d="M293.709 191.731C291.48 193.998 289.972 196.875 289.378 199.998C288.784 203.122 289.129 206.352 290.371 209.279C291.613 212.206 293.694 214.7 296.353 216.444C299.012 218.187 302.128 219.104 305.307 219.077C308.487 219.049 311.587 218.08 314.215 216.29C316.844 214.501 318.883 211.973 320.074 209.024C321.265 206.076 321.555 202.841 320.907 199.728C320.26 196.615 318.703 193.764 316.435 191.536C313.395 188.549 309.293 186.892 305.032 186.928C300.77 186.965 296.698 188.692 293.709 191.731ZM313.87 211.547C313.433 211.992 312.838 212.244 312.214 212.25C311.591 212.255 310.991 212.012 310.547 211.575C310.102 211.138 309.85 210.543 309.844 209.92C309.839 209.296 310.081 208.696 310.518 208.252C310.735 208.032 310.992 207.856 311.276 207.736C311.561 207.615 311.866 207.552 312.174 207.549C312.483 207.547 312.789 207.605 313.075 207.72C313.361 207.836 313.622 208.007 313.842 208.223C314.062 208.44 314.237 208.697 314.358 208.981C314.479 209.266 314.542 209.571 314.545 209.879C314.547 210.188 314.489 210.494 314.373 210.78C314.258 211.066 314.087 211.327 313.87 211.547ZM303.059 196.755C305.198 199.555 307.523 202.436 309.203 205.537C309.609 206.284 308.534 207.379 307.779 206.982C305.448 205.719 303.204 204.3 301.063 202.737C299.48 201.633 296.493 200.257 295.917 198.2C295.393 196.365 297.106 194.34 298.798 193.853C300.876 193.261 301.98 195.383 303.059 196.755Z" fill="#D1D5DB"/>
<path d="M356.734 62.9829C358.335 61.0129 359.316 58.6124 359.553 56.0848C359.79 53.5573 359.272 51.0162 358.065 48.7829C356.858 46.5496 355.016 44.7244 352.771 43.5381C350.527 42.3517 347.981 41.8576 345.456 42.118C342.931 42.3785 340.539 43.3819 338.584 45.0014C336.629 46.6209 335.198 48.7837 334.472 51.2164C333.747 53.649 333.758 56.2423 334.506 58.6683C335.254 61.0943 336.705 63.244 338.674 64.8456C339.982 65.9093 341.487 66.7048 343.103 67.1869C344.718 67.6689 346.413 67.828 348.09 67.655C349.767 67.482 351.393 66.9804 352.876 66.1787C354.36 65.3771 355.67 64.2911 356.734 62.9829ZM339.214 48.7425C339.37 48.5512 339.561 48.3924 339.778 48.2751C339.995 48.1577 340.232 48.0843 340.477 48.0588C340.723 48.0334 340.97 48.0565 341.206 48.1268C341.443 48.1971 341.663 48.3133 341.854 48.4686C342.045 48.624 342.204 48.8155 342.322 49.0322C342.439 49.249 342.512 49.4867 342.538 49.7318C342.563 49.977 342.54 50.2247 342.47 50.4609C342.399 50.6971 342.283 50.9172 342.128 51.1085C341.814 51.4949 341.36 51.7408 340.865 51.7922C340.37 51.8436 339.875 51.6962 339.488 51.3824C339.102 51.0687 338.856 50.6143 338.804 50.1192C338.753 49.6241 338.9 49.1289 339.214 48.7425ZM348.926 59.6998C347.014 57.6341 344.957 55.532 343.378 53.1782C342.996 52.6141 343.784 51.6645 344.401 51.9242C346.355 52.7574 348.252 53.72 350.078 54.8056C351.417 55.5644 353.897 56.4289 354.51 58.0278C355.062 59.4441 353.852 61.1851 352.541 61.6802C350.922 62.3052 349.883 60.7022 348.926 59.6754V59.6998Z" fill="#D1D5DB"/>
<path d="M229.143 147.614C233.672 155.324 233.465 160.815 232.288 169.715C231.817 173.103 235.465 175.396 238.424 173.692C264.563 158.676 288.961 170.551 320.128 163.189C331.572 160.503 345.841 154.935 355.622 145.982C358.867 141.164 360.601 135.486 360.601 129.676C360.601 105.327 327.324 85.5591 286.283 85.5591C259.981 85.5591 236.873 93.6756 223.664 105.903C223.664 105.903 223.664 105.903 223.627 105.94C220.275 110.96 218.433 116.446 218.433 122.173C218.413 130.91 224.91 140.382 229.143 147.614Z" fill="#D7E8F0"/>
<path d="M218.53 122.173C218.53 122.375 218.53 122.578 218.53 122.789C218.676 131.312 222.954 139.254 228.018 146.124C231.411 150.718 235.437 155.823 234.483 161.456C234.077 163.94 232.677 166.192 232.328 168.684C231.979 171.176 233.306 174.284 235.822 174.414C237.421 174.495 238.781 173.359 240.047 172.385C247.534 166.582 257.266 164.411 266.73 164.029C276.194 163.648 285.645 164.898 295.113 165.165C308.765 165.571 322.632 163.851 335.241 158.615C346.539 153.932 356.892 146.246 363.689 135.979C370.369 125.898 366.421 111.26 359.294 102.494C352.614 94.2681 342.936 89.0045 333.009 85.2953C306.31 75.3282 275.837 75.5555 249.507 86.4762C241.691 89.7228 234.13 93.9434 228.27 100.051C222.56 106 218.591 113.93 218.53 122.173Z" stroke="black" stroke-width="3" stroke-miterlimit="10"/>
<path d="M328.078 131.871C333.74 131.871 338.329 127.282 338.329 121.62C338.329 115.959 333.74 111.369 328.078 111.369C322.417 111.369 317.827 115.959 317.827 121.62C317.827 127.282 322.417 131.871 328.078 131.871Z" fill="white"/>
<path d="M294.923 131.871C300.584 131.871 305.174 127.282 305.174 121.62C305.174 115.959 300.584 111.369 294.923 111.369C289.261 111.369 284.671 115.959 284.671 121.62C284.671 127.282 289.261 131.871 294.923 131.871Z" fill="white"/>
<path d="M261.121 131.871C266.783 131.871 271.373 127.282 271.373 121.62C271.373 115.959 266.783 111.369 261.121 111.369C255.46 111.369 250.87 115.959 250.87 121.62C250.87 127.282 255.46 131.871 261.121 131.871Z" fill="white"/>
</svg>
