<svg width="17" height="15" viewBox="0 0 17 15" fill="none" xmlns="http://www.w3.org/2000/svg">
<path d="M8.84987 10.143L7.56045 8.85355L6.70689 8H7.914H15.5C15.6326 8 15.7598 7.94732 15.8536 7.85355C15.9473 7.75979 16 7.63261 16 7.5C16 7.36739 15.9473 7.24021 15.8536 7.14645C15.7598 7.05268 15.6326 7 15.5 7H7.914H6.70689L7.56045 6.14645L8.85339 4.8535C8.85341 4.85348 8.85343 4.85346 8.85345 4.85345C8.94715 4.75969 8.99979 4.63256 8.99979 4.5C8.99979 4.36747 8.94717 4.24036 8.8535 4.14661C8.85346 4.14657 8.85343 4.14654 8.85339 4.1465M8.84987 10.143L7.793 3.793C7.98053 3.60553 8.23484 3.50021 8.5 3.50021C8.76516 3.50021 9.01947 3.60553 9.207 3.793L8.85339 4.1465M8.84987 10.143C8.93936 10.237 8.98882 10.3622 8.98769 10.4921C8.98655 10.6232 8.93397 10.7486 8.84126 10.8413C8.74856 10.934 8.62315 10.9866 8.49206 10.9877C8.36216 10.9888 8.23697 10.9394 8.14296 10.8498L5.14661 7.8535C5.14659 7.85348 5.14657 7.85346 5.14655 7.85345C5.05285 7.75969 5.00021 7.63256 5.00021 7.5C5.00021 7.36744 5.05285 7.24031 5.14655 7.14655C5.14657 7.14654 5.14659 7.14652 5.14661 7.1465L8.1465 4.14661C8.14652 4.14659 8.14654 4.14657 8.14655 4.14655M8.84987 10.143L8.14655 4.14655M8.85339 4.1465C8.75964 4.05283 8.63253 4.00021 8.5 4.00021C8.36744 4.00021 8.24031 4.05285 8.14655 4.14655M8.85339 4.1465L8.14655 4.14655M1.5 1C1.63261 1 1.75979 1.05268 1.85355 1.14645C1.94732 1.24021 2 1.36739 2 1.5V13.5C2 13.6326 1.94732 13.7598 1.85355 13.8536C1.75979 13.9473 1.63261 14 1.5 14C1.36739 14 1.24021 13.9473 1.14645 13.8536C1.05268 13.7598 1 13.6326 1 13.5V1.5C1 1.36739 1.05268 1.24021 1.14645 1.14645C1.24021 1.05268 1.36739 1 1.5 1Z" stroke="white"/>
</svg>
