<svg width="19" height="19" viewBox="0 0 19 19" fill="none" xmlns="http://www.w3.org/2000/svg">
<path d="M8 3.00016H3C2.46957 3.00016 1.96086 3.21088 1.58579 3.58595C1.21071 3.96102 1 4.46973 1 5.00016V16.0002C1 16.5306 1.21071 17.0393 1.58579 17.4144C1.96086 17.7894 2.46957 18.0002 3 18.0002H14C14.5304 18.0002 15.0391 17.7894 15.4142 17.4144C15.7893 17.0393 16 16.5306 16 16.0002V11.0002M14.586 1.58616C14.7705 1.39514 14.9912 1.24278 15.2352 1.13796C15.4792 1.03314 15.7416 0.977969 16.0072 0.975661C16.2728 0.973354 16.5361 1.02396 16.7819 1.12452C17.0277 1.22508 17.251 1.37359 17.4388 1.56137C17.6266 1.74916 17.7751 1.97246 17.8756 2.21825C17.9762 2.46405 18.0268 2.72741 18.0245 2.99296C18.0222 3.25852 17.967 3.52096 17.8622 3.76497C17.7574 4.00898 17.605 4.22967 17.414 4.41416L8.828 13.0002H6V10.1722L14.586 1.58616Z" stroke="#9CA3AF" stroke-linecap="round" stroke-linejoin="round"/>
</svg>
