<svg width="20" height="12" viewBox="0 0 20 12" fill="none" xmlns="http://www.w3.org/2000/svg">
<path d="M13.1052 1.69513L15.8568 4.44668L16.7103 5.30023H15.5032H1.60002C1.41437 5.30023 1.23633 5.37398 1.10505 5.50526L0.753653 5.15386L1.10505 5.50526C0.973774 5.63653 0.900024 5.81458 0.900024 6.00023C0.900024 6.18588 0.973774 6.36393 1.10505 6.49521C1.23633 6.62648 1.41437 6.70023 1.60002 6.70023H15.5032H16.7103L15.8568 7.55378L13.1086 10.3019C12.9828 10.4336 12.9132 10.6093 12.9148 10.7916C12.9164 10.9751 12.99 11.1507 13.1198 11.2805C13.2496 11.4102 13.4251 11.4839 13.6087 11.4855C13.791 11.487 13.9666 11.4175 14.0984 11.2916L18.8948 6.49513C18.8948 6.49511 18.8949 6.4951 18.8949 6.49508C19.0261 6.36381 19.0998 6.18582 19.0998 6.00023C19.0998 5.81464 19.0261 5.63665 18.8949 5.50539L13.1052 1.69513ZM13.1052 1.69513C13.1052 1.69511 13.1052 1.6951 13.1052 1.69508C12.974 1.56381 12.9003 1.38582 12.9003 1.20023C12.9003 1.01462 12.974 0.836602 13.1052 0.705332C13.2365 0.574169 13.4145 0.500488 13.6 0.500488C13.7856 0.500488 13.9636 0.574189 14.0949 0.705386C14.0949 0.705404 14.0949 0.705421 14.0949 0.705439L18.8948 5.50533L13.1052 1.69513Z" stroke="#f56565"/>
</svg>
