<svg width="6" height="11" viewBox="0 0 6 11" fill="none" xmlns="http://www.w3.org/2000/svg">
<path fill-rule="evenodd" clip-rule="evenodd" d="M0.293031 10.2069C0.10556 10.0194 0.000244141 9.76508 0.000244141 9.49992C0.000244141 9.23475 0.10556 8.98045 0.293031 8.79292L3.58603 5.49992L0.293031 2.20692C0.110873 2.01832 0.0100779 1.76571 0.0123563 1.50352C0.0146347 1.24132 0.119804 0.990509 0.305212 0.805101C0.49062 0.619692 0.741433 0.514523 1.00363 0.512245C1.26583 0.509966 1.51843 0.610761 1.70703 0.792919L5.70703 4.79292C5.8945 4.98045 5.99982 5.23475 5.99982 5.49992C5.99982 5.76508 5.8945 6.01939 5.70703 6.20692L1.70703 10.2069C1.5195 10.3944 1.26519 10.4997 1.00003 10.4997C0.734866 10.4997 0.480558 10.3944 0.293031 10.2069Z" fill="#6B7280"/>
</svg>
