<svg width="15" height="17" viewBox="0 0 15 17" fill="none" xmlns="http://www.w3.org/2000/svg">
<path d="M1 4.33333V12.6667C1 14.5083 3.985 16 7.66667 16C11.3483 16 14.3333 14.5083 14.3333 12.6667V4.33333M1 4.33333C1 6.175 3.985 7.66667 7.66667 7.66667C11.3483 7.66667 14.3333 6.175 14.3333 4.33333M1 4.33333C1 2.49167 3.985 1 7.66667 1C11.3483 1 14.3333 2.49167 14.3333 4.33333M14.3333 8.5C14.3333 10.3417 11.3483 11.8333 7.66667 11.8333C3.985 11.8333 1 10.3417 1 8.5" stroke="#374151" stroke-linecap="round" stroke-linejoin="round"/>
</svg>
