<svg width="14" height="16" viewBox="0 0 14 16" fill="none" xmlns="http://www.w3.org/2000/svg">
<path d="M4.49996 8H9.49996M4.49996 11.3333H9.49996M11.1666 15.5H2.83329C2.39127 15.5 1.96734 15.3244 1.65478 15.0118C1.34222 14.6993 1.16663 14.2754 1.16663 13.8333V2.16667C1.16663 1.72464 1.34222 1.30072 1.65478 0.988155C1.96734 0.675595 2.39127 0.5 2.83329 0.5H7.48829C7.70929 0.500047 7.92122 0.587876 8.07746 0.744167L12.5891 5.25583C12.7454 5.41208 12.8332 5.624 12.8333 5.845V13.8333C12.8333 14.2754 12.6577 14.6993 12.3451 15.0118C12.0326 15.3244 11.6087 15.5 11.1666 15.5Z" stroke="#374151" stroke-linecap="round" stroke-linejoin="round"/>
</svg>
