<svg width="16" height="16" viewBox="0 0 16 16" fill="none" xmlns="http://www.w3.org/2000/svg">
<path d="M13.5776 2.42254C13.3713 2.21639 13.0916 2.10059 12.8 2.10059C12.5083 2.10059 12.2286 2.21641 12.0223 2.4226C12.0223 2.42262 12.0223 2.42263 12.0223 2.42265L6.09998 8.34495V9.90024H7.65527L13.5776 3.97794C13.5776 3.97793 13.5776 3.97791 13.5776 3.97789C13.7838 3.77162 13.8996 3.4919 13.8996 3.20024C13.8996 2.90861 13.7838 2.62892 13.5777 2.42265C13.5776 2.42262 13.5776 2.42258 13.5776 2.42254ZM13.5776 2.42254L13.9312 2.06904L13.5776 2.42254Z" stroke="#6B7280"/>
<path d="M3.19998 4.3002H2.69998V4.8002V12.8002V13.3002H3.19998H11.2H11.7V12.8002V9.6002C11.7 9.52063 11.7316 9.44432 11.7878 9.38806C11.8441 9.3318 11.9204 9.3002 12 9.3002C12.0795 9.3002 12.1558 9.3318 12.2121 9.38806C12.2684 9.44432 12.3 9.52063 12.3 9.6002V12.8002C12.3 13.0919 12.1841 13.3717 11.9778 13.578C11.7715 13.7843 11.4917 13.9002 11.2 13.9002H3.19998C2.90824 13.9002 2.62845 13.7843 2.42216 13.578C2.21587 13.3717 2.09998 13.0919 2.09998 12.8002V4.8002C2.09998 4.50846 2.21587 4.22867 2.42216 4.02238C2.62845 3.81609 2.90824 3.7002 3.19998 3.7002H6.39998C6.47954 3.7002 6.55585 3.7318 6.61211 3.78806C6.66837 3.84432 6.69998 3.92063 6.69998 4.0002C6.69998 4.07976 6.66837 4.15607 6.61211 4.21233C6.55585 4.26859 6.47954 4.3002 6.39998 4.3002H3.19998Z" stroke="#6B7280"/>
</svg>
